<?xml version="1.0" encoding="utf-8"?>
<!-- Generator: Adobe Illustrator 24.1.0, SVG Export Plug-In . SVG Version: 6.00 Build 0)  -->
<svg version="1.1" id="Layer_1" xmlns="http://www.w3.org/2000/svg" xmlns:xlink="http://www.w3.org/1999/xlink" x="0px" y="0px"
	 viewBox="0 0 500 86" style="enable-background:new 0 0 500 86;" xml:space="preserve">
<style type="text/css">
	.st0{fill:#1B55A3;}
	.st1{fill:#309F48;}
	.st2{fill:url(#SVGID_1_);}
	.st3{fill:#FFFFFF;}
</style>
<path class="st0" d="M194.6,44.3c-4.7,7.6-9.4,15.1-14.1,22.8c-4.8-7.7-9.5-15.3-14.2-22.8c-0.1,0-0.1,0-0.2,0c0,0.2,0,0.5,0,0.7
	c0,7.3,0,14.6,0,22c0,0.7-0.2,0.9-0.9,0.9c-1.6,0-3.3,0-4.9,0c-0.7,0-0.8-0.2-0.8-0.8c0-11.6,0-23.1,0-34.7c0-2.5,0-4.9,0-7.4
	c0-0.2,0.1-0.4,0.2-0.7c0.2,0.1,0.4,0.3,0.5,0.4c3.8,5.8,7.6,11.6,11.5,17.4c2.7,4.2,5.5,8.3,8.2,12.5c0.1,0.2,0.3,0.4,0.5,0.7
	c0.2-0.3,0.3-0.4,0.5-0.6c6.5-9.9,13.1-19.9,19.6-29.8c0-0.1,0.1-0.1,0.1-0.2c0.2-0.1,0.4-0.3,0.5-0.4c0.1,0.2,0.1,0.4,0.1,0.6
	c0,14.1,0,28.2,0,42.2c0,0.6-0.2,0.7-0.7,0.7c-1.7,0-3.4,0-5.1,0c-0.6,0-0.8-0.2-0.8-0.8c0-7.3,0-14.6,0-22c0-0.3,0-0.5,0-0.8
	C194.7,44.4,194.6,44.3,194.6,44.3z"/>
<path class="st1" d="M293.2,44.3c-4.7,7.6-9.4,15.1-14.1,22.8c-4.8-7.7-9.5-15.3-14.2-22.8c-0.1,0-0.1,0-0.2,0.1c0,0.3,0,0.6,0,0.8
	c0,7.3,0,14.6,0,21.8c0,0.7-0.1,0.9-0.9,0.9c-1.7-0.1-3.3,0-5,0c-0.5,0-0.8-0.1-0.8-0.7c0-14.1,0-28.1,0-42.2c0-0.2,0.1-0.4,0.2-0.7
	c0.2,0.2,0.4,0.3,0.6,0.5c5.8,8.8,11.6,17.6,17.4,26.4c0.8,1.2,1.5,2.3,2.3,3.5c0.1,0.2,0.3,0.4,0.5,0.7
	c6.9-10.5,13.7-20.8,20.5-31.2c0.1,0,0.2,0.1,0.3,0.1c0,0.2,0.1,0.4,0.1,0.6c0,14.1,0,28.2,0,42.2c0,0.5-0.2,0.7-0.7,0.7
	c-1.7,0-3.4,0-5.1,0c-0.6,0-0.8-0.2-0.8-0.8c0-7.3,0-14.6,0-22c0-0.3,0-0.5,0-0.8C293.3,44.3,293.2,44.3,293.2,44.3z"/>
<path class="st1" d="M369.6,50.8c4.2,5.7,8.2,11.3,12.4,17.1c-0.5,0-0.9,0-1.2,0c-2.1,0-4.1,0-6.2,0c-0.5,0-0.7-0.1-1-0.5
	c-3.6-5.1-7.1-10.2-10.7-15.4c-0.4-0.5-0.8-0.8-1.4-0.7c-1.4,0.1-2.9,0-4.5,0c0,0.3,0,0.6,0,0.9c0,5,0,9.9,0,14.9
	c0,0.6-0.1,0.8-0.8,0.8c-1.7,0-3.4,0-5,0c-0.6,0-0.8-0.2-0.8-0.8c0-3.3,0-6.6,0-9.9c0-10.3,0-20.6,0-30.9c0-1,0-1,1-1
	c4.2,0,8.3-0.1,12.5,0c4.8,0.1,8.7,2,11.7,5.9c1.8,2.4,2.7,5.1,2.6,8.1c-0.2,5-3.2,9.4-7.8,11.2C370.1,50.5,369.9,50.6,369.6,50.8z
	 M361,31.7c0,0,0,0.1,0,0.1c-1.2,0-2.3,0-3.5,0c-0.5,0-0.7,0.1-0.7,0.7c0,4.2,0,8.4,0,12.6c0,0.5,0.2,0.7,0.7,0.7c2.1,0,4.2,0,6.3,0
	c1.4,0,2.7-0.4,3.9-1.1c2.7-1.6,4-4.5,3.4-7.5c-0.6-2.7-2.5-4.5-5.2-5.1C364.4,31.7,362.7,31.8,361,31.7z"/>
<path class="st0" d="M209.7,46.5c0-6.8,0-13.6,0-20.4c0-0.7,0.2-0.8,0.9-0.8c7.9,0,15.8,0,23.7,0c0.7,0,0.8,0.2,0.8,0.8
	c0,1.6,0,3.2,0,4.8c0,0.9,0,0.9-0.9,0.9c-5.5,0-11.1,0-16.6,0c-0.2,0-0.4,0-0.6,0c-0.5,0-0.7,0.2-0.7,0.7c0,3.2,0,6.4,0,9.7
	c0,0.6,0.2,0.7,0.8,0.7c4.9,0,9.8,0,14.6,0c0.6,0,0.9,0.1,0.8,0.8c0,1.7,0,3.4,0,5c0,0.6-0.2,0.7-0.8,0.7c-4.9,0-9.8,0-14.6,0
	c-0.7,0-0.8,0.2-0.8,0.8c0,3.4,0,6.8,0,10.3c0,0.7,0.2,0.9,0.9,0.9c5.7,0,11.4,0,17.2,0c0.6,0,0.8,0.1,0.8,0.7c0,1.7,0,3.5,0,5.2
	c0,0.5-0.2,0.6-0.6,0.6c-8,0-16.1,0-24.1,0c-0.6,0-0.7-0.2-0.7-0.7C209.7,60.3,209.7,53.4,209.7,46.5z"/>
<path class="st1" d="M421.8,46.6c0-6.8,0-13.6,0-20.5c0-0.7,0.2-0.8,0.8-0.8c7.9,0,15.8,0,23.7,0c0.7,0,0.9,0.2,0.8,0.8
	c0,1.6,0,3.2,0,4.8c0,0.6-0.2,0.8-0.8,0.8c-5.6,0-11.3,0-16.9,0c-1.1,0-1.1,0-1.1,1.1c0,3,0,6,0,9c0,0.9,0,0.9,1,0.9
	c4.8,0,9.6,0,14.4,0c0.6,0,0.8,0.2,0.8,0.8c0,1.7,0,3.3,0,5c0,0.6-0.2,0.8-0.8,0.8c-4.9,0-9.7,0-14.6,0c-0.7,0-0.9,0.2-0.9,0.9
	c0,3.4,0,6.8,0,10.3c0,0.7,0.2,0.8,0.8,0.8c5.7,0,11.4,0,17.1,0c0.9,0,0.9,0,0.9,0.9c0,1.7,0,3.3,0,5c0,0.5-0.2,0.7-0.7,0.7
	c-8,0-16,0-24,0c-0.6,0-0.7-0.3-0.7-0.8C421.8,60.2,421.8,53.4,421.8,46.6z"/>
<path class="st1" d="M417.1,67.8c-1.4,0-2.6,0-3.9,0c-1.1,0-2.2,0-3.3,0c-0.6,0-0.9-0.2-1.3-0.6c-2.8-3.7-5.7-7.5-8.6-11.2
	c-2.1-2.8-4.2-5.5-6.4-8.3c-0.1-0.2-0.3-0.3-0.5-0.6c0,0.4-0.1,0.7-0.1,0.9c0,6.3,0,12.6,0,18.9c0,0.6-0.2,0.9-0.8,0.9
	c-1.6,0-3.3,0-4.9,0c-0.6,0-0.9-0.1-0.9-0.8c0-4.1,0-8.1,0-12.2c0-9.6,0-19.1,0-28.7c0-0.9,0-0.9,0.9-0.9c1.6,0,3.1,0,4.7,0
	c1,0,1,0,1,1c0,6.1,0,12.3,0,18.4c0,0.3,0,0.5,0,0.8c0.1,0,0.1,0,0.2,0.1c0.2-0.2,0.3-0.3,0.5-0.5c4.6-6.4,9.2-12.8,13.8-19.2
	c0.3-0.5,0.7-0.6,1.2-0.6c2,0,4,0,6.1,0c0.2,0,0.4,0,0.8,0c-0.7,1-1.3,1.8-1.9,2.7c-4.3,5.9-8.5,11.7-12.8,17.6
	c-0.4,0.6-0.2,0.9,0.1,1.3c5.3,6.8,10.5,13.7,15.8,20.5C416.8,67.5,416.9,67.6,417.1,67.8z"/>
<path class="st1" d="M345.3,67.8c-1.9,0-3.7-0.1-5.4,0c-1.3,0.1-1.9-0.3-2.3-1.5c-0.5-1.5-1.3-3-2-4.5c-0.2-0.4-0.4-0.6-0.9-0.6
	c-6.4,0-12.8,0-19.1,0c-0.5,0-0.7,0.2-0.9,0.6c-0.8,1.7-1.6,3.5-2.3,5.2c-0.2,0.6-0.5,0.7-1.1,0.7c-1.8,0-3.7,0-5.5,0
	c-0.2,0-0.4,0-0.8,0c0.5-1.1,1-2.1,1.4-3.1c6.1-13.2,12.2-26.5,18.3-39.7c0.1-0.2,0.3-0.4,0.4-0.6c0.2,0.2,0.4,0.4,0.5,0.6
	c3.7,8,7.4,16.1,11.1,24.1c2.8,6,5.5,12,8.3,17.9C345.1,67.3,345.2,67.5,345.3,67.8z M332.7,55.7c-2.5-5.6-5-11.2-7.5-16.7
	c-0.1,0-0.1,0-0.2,0c-2.5,5.5-5,11.1-7.5,16.7C322.7,55.7,327.6,55.7,332.7,55.7z"/>
<path class="st0" d="M127.6,31.8c0,0.4,0,0.7,0,1c0,11.4,0,22.8,0,34.2c0,0.9,0,0.9-0.9,0.9c-1.6,0-3.2,0-4.8,0
	c-0.7,0-0.9-0.1-0.9-0.9c0-2.5,0-5,0-7.5c0-8.9,0-17.9,0-26.8c0-0.9,0-0.9-0.9-0.9c-3.3,0-6.5,0-9.8,0c-0.6,0-0.8-0.2-0.8-0.8
	c0-1.7,0-3.4,0-5.2c0-0.5,0.2-0.7,0.7-0.7c9.4,0,18.8,0,28.2,0c0.5,0,0.7,0.1,0.7,0.6c0,1.8,0,3.5,0,5.3c0,0.5-0.2,0.6-0.7,0.6
	c-3.3,0-6.6,0-9.9,0C128.3,31.8,128,31.8,127.6,31.8z"/>
<path class="st1" d="M469.6,31.8c0,0.4,0,0.8,0,1.1c0,11.4,0,22.7,0,34.1c0,0.9,0,0.9-0.9,0.9c-1.6,0-3.2,0-4.8,0
	c-0.6,0-0.8-0.2-0.8-0.8c0-11.3,0-22.7,0-34c0-1.5,0.1-1.3-1.3-1.3c-3.2,0-6.3,0-9.5,0c-0.6,0-0.7-0.2-0.7-0.7c0-1.7,0-3.4,0-5.2
	c0-0.5,0.2-0.7,0.7-0.7c9.4,0,18.7,0,28.1,0c0.5,0,0.7,0.2,0.7,0.7c0,1.7,0,3.4,0,5.1c0,0.6-0.2,0.8-0.8,0.8c-3.3,0-6.6,0-9.9,0
	C470.2,31.8,470,31.8,469.6,31.8z"/>
<path class="st0" d="M144.6,46.6c0-6.8,0-13.7,0-20.5c0-0.6,0.2-0.8,0.8-0.8c1.6,0,3.3,0,4.9,0c0.9,0,0.9,0,0.9,0.9c0,8,0,16,0,23.9
	c0,5.7,0,11.3,0,17c0,0.7-0.2,0.8-0.8,0.8c-1.6,0-3.3,0-4.9,0c-0.7,0-0.9-0.1-0.9-0.8C144.6,60.2,144.6,53.4,144.6,46.6z"/>
<linearGradient id="SVGID_1_" gradientUnits="userSpaceOnUse" x1="77.2169" y1="19.992" x2="27.4805" y2="69.8959">
	<stop  offset="2.366843e-02" style="stop-color:#7CC143"/>
	<stop  offset="0.2706" style="stop-color:#6FB844"/>
	<stop  offset="0.7208" style="stop-color:#47A547"/>
	<stop  offset="1" style="stop-color:#1B9948"/>
</linearGradient>
<path class="st2" d="M78.7,13.7H25.8c-2.7,0-4.9,2.2-4.9,4.9v52.9c0,2.7,2.2,4.9,4.9,4.9h52.9c2.7,0,4.9-2.2,4.9-4.9V18.6
	C83.6,15.9,81.4,13.7,78.7,13.7z"/>
<path class="st3" d="M29.9,74.5c0,0,25.3-23.8,25.1-37.1S37.2,15.6,37.2,15.6s20.8,2.8,26,18.3S53.1,60.8,47.1,65.6
	S29.9,74.5,29.9,74.5z"/>
<path class="st3" d="M58,59.3c3.5-3.5,7.1-7.8,8.8-13h9.7c0,0,0.4,6.5-3.3,14.1C69.6,68,59.5,74.5,59.5,74.5s4.9-7.3,6.5-11.5
	c1.6-4.1,1.3-6.9,1.3-6.9L58,59.3z"/>
<circle class="st3" cx="44.9" cy="31.3" r="5.4"/>
</svg>
